<?xml version="1.0" encoding="UTF-8" standalone="no"?>
<!-- Created with Inkscape (http://www.inkscape.org/) -->

<svg
   version="1.1"
   id="svg2"
   width="1261.5453"
   height="501.33334"
   viewBox="0 0 1261.5453 501.33334"
   sodipodi:docname="Coffey_Logo_Color.pdf"
   xmlns:inkscape="http://www.inkscape.org/namespaces/inkscape"
   xmlns:sodipodi="http://sodipodi.sourceforge.net/DTD/sodipodi-0.dtd"
   xmlns="http://www.w3.org/2000/svg"
   xmlns:svg="http://www.w3.org/2000/svg">
  <defs
     id="defs6">
    <clipPath
       clipPathUnits="userSpaceOnUse"
       id="clipPath16">
      <path
         d="M 0,376 H 946.159 V 0 H 0 Z"
         id="path14" />
    </clipPath>
    <clipPath
       clipPathUnits="userSpaceOnUse"
       id="clipPath76">
      <path
         d="M 131.916,356.434 H 338.395 V 31.0057 H 131.916 Z"
         id="path74" />
    </clipPath>
  </defs>
  <sodipodi:namedview
     id="namedview4"
     pagecolor="#ffffff"
     bordercolor="#000000"
     borderopacity="0.25"
     inkscape:showpageshadow="2"
     inkscape:pageopacity="0.0"
     inkscape:pagecheckerboard="0"
     inkscape:deskcolor="#d1d1d1" />
  <g
     id="g8"
     inkscape:groupmode="layer"
     inkscape:label="Coffey_Logo_Color"
     transform="matrix(1.3333333,0,0,-1.3333333,0,501.33333)">
    <g
       id="g10">
      <g
         id="g12"
         clip-path="url(#clipPath16)">
        <g
           id="g18"
           transform="translate(26.2638,297.8706)">
          <path
             d="M 0,0 C -23.341,-166.801 87.53,-250.926 105.725,-263.495 257.78,-187.646 298.625,-31.8 305.529,0.169 218.027,9.329 174.909,44.105 162.583,55.899 137.901,36.41 102.928,21.093 58.519,10.334 31.525,3.795 9.141,0.974 0,0 m 105.006,-276.153 -2.589,1.593 c -1.42,0.876 -141.777,89.735 -112.716,280.472 l 0.655,4.316 4.354,0.356 c 1.079,0.088 108.477,9.348 164.723,57.009 l 4.178,3.54 3.578,-4.149 c 0.399,-0.461 42.208,-47.236 145.431,-56.403 l 5.915,-0.525 -0.953,-5.861 C 317.273,2.276 284.396,-188.646 107.735,-274.82 Z"
             style="fill:#0a487c;fill-opacity:1;fill-rule:nonzero;stroke:none"
             id="path20" />
        </g>
        <g
           id="g22"
           transform="translate(21.4225,302.9492)">
          <path
             d="m 0,0 c 0,0 109.544,8.899 167.845,58.301 0,0 42.038,-48.789 149.127,-58.301 0,0 -30.685,-189.017 -206.814,-274.934 0,0 -139.002,85.61 -110.158,274.934"
             style="fill:#0a487c;fill-opacity:1;fill-rule:nonzero;stroke:none"
             id="path24" />
        </g>
        <g
           id="g26"
           transform="translate(480.6837,240.1028)">
          <path
             d="m 0,0 c 6.569,17.818 19.514,29.45 32.834,29.45 15.756,0 20.255,-18.009 10.876,-43.709 -7.691,-21.202 -20.637,-33.957 -34.705,-33.957 -7.317,0 -12.755,4.507 -13.877,12.006 -1.689,9.754 0,22.89 4.872,36.21 m -80.032,-54.219 c 20.08,0 40.616,7.824 57.086,21.564 2.393,-12.685 12.181,-20.815 27.636,-20.815 23.638,0 48.964,19.888 58.342,45.779 9.005,24.57 -1.871,42.396 -25.883,42.396 -24.394,0 -48.025,-18.009 -57.411,-43.9 -2.453,-6.762 -3.461,-13.046 -3.232,-18.659 -18.145,-12.679 -32.321,-18.109 -47.534,-18.109 -30.466,0 -38.378,22.256 -25.517,57.778 12.381,33.957 37.707,55.907 64.912,55.907 10.876,0 19.131,-3.941 23.821,-11.449 3.758,-6.003 4.88,-11.25 3.941,-23.447 H 0.444 L 14.138,75.222 H 10.197 C 7.57,71.281 3.82,69.035 0.253,69.035 c -1.871,0 -4.307,0.558 -6.935,1.688 -8.072,3.002 -16.695,4.499 -25.891,4.499 -14.442,0 -31.329,-5.438 -46.146,-14.817 -18.574,-11.823 -32.833,-29.641 -40.524,-51.026 -13.886,-38.081 1.878,-63.598 39.211,-63.598"
             style="fill:#0a487c;fill-opacity:1;fill-rule:nonzero;stroke:none"
             id="path28" />
        </g>
        <g
           id="g30"
           transform="translate(500.0185,99.113)">
          <path
             d="m 0,0 c -3.75,-10.502 -11.632,-17.07 -20.262,-17.07 -11.25,0 -14.634,12.19 -8.066,30.199 3.766,11.288 11.678,18.2 20.446,18.2 5.82,0 9.57,-3.193 10.509,-8.814 C 3.567,15.947 2.627,7.317 0,0 m -22.699,-52.523 c 17.07,0 22.325,-2.444 19.888,-9.196 -3.94,-10.883 -21.01,-18.2 -42.212,-18.2 -16.505,0 -25.326,5.446 -22.324,13.702 1.504,4.307 3.749,6.751 15.007,16.13 5.629,-1.313 20.446,-2.436 29.641,-2.436 m 42.022,75.596 h 15.573 l 2.627,7.316 h -14.45 c -3.75,0 -6.377,0.566 -9.562,1.879 l -3.567,1.497 c -4.315,1.879 -9.196,2.818 -14.068,2.818 -17.452,0 -36.21,-13.51 -42.396,-30.58 -4.315,-11.815 -1.879,-18.949 8.249,-25.135 l -10.693,-7.508 c -8.249,-5.437 -12.006,-9.188 -13.32,-12.945 -1.497,-3.934 -0.183,-6.187 6.194,-9.937 -16.886,-9.761 -24.203,-15.947 -26.64,-22.889 -3.566,-9.944 8.066,-18.201 25.892,-18.201 14.068,0 30.389,4.881 42.953,12.763 9.196,5.812 14.633,11.815 17.261,18.941 4.315,11.632 -1.688,19.514 -15.382,20.079 l -23.821,1.123 c -9.761,0.374 -13.885,2.061 -12.763,5.063 1.314,3.75 9.944,10.318 15.573,11.823 1.688,-0.191 2.811,-0.382 3.376,-0.382 3.376,-0.374 5.82,-0.557 6.942,-0.557 6.943,0 15.573,2.81 23.264,7.874 8.065,5.255 13.32,11.823 16.696,21.202 2.062,5.437 2.436,9.753 2.062,15.756"
             style="fill:#0a487c;fill-opacity:1;fill-rule:nonzero;stroke:none"
             id="path32" />
        </g>
        <g
           id="g34"
           transform="translate(791.8309,146.9541)">
          <path
             d="m 0,0 c 5.446,0 11.074,4.124 13.136,9.562 1.872,5.255 -0.756,9.57 -6.194,9.57 -5.254,0 -11.067,-4.315 -12.945,-9.57 C -8.065,4.124 -5.247,0 0,0"
             style="fill:#0a487c;fill-opacity:1;fill-rule:nonzero;stroke:none"
             id="path36" />
        </g>
        <g
           id="g38"
           transform="translate(580.7518,107.3692)">
          <path
             d="m 0,0 h -38.264 c 7.5,14.817 16.322,21.576 27.763,21.576 C 0.94,21.576 3.567,16.321 0,0 m 256.356,21.576 c 11.441,0 14.068,-5.255 10.502,-21.576 h -38.264 c 7.5,14.817 16.321,21.576 27.762,21.576 m 20.446,-48.781 c -14.26,-14.259 -24.387,-19.697 -36.393,-19.697 -10.318,0 -16.321,4.88 -18.009,15.007 -1.123,7.317 -0.184,13.885 3.75,25.892 h 57.785 c 3.002,12.189 3.002,17.635 0.558,23.638 -3.185,6.751 -10.502,10.692 -20.255,10.692 -23.264,0 -45.963,-18.757 -55.907,-46.153 -3.103,-8.565 -4.32,-16.034 -3.828,-22.233 l -5.614,-6.095 c -3.001,-3.185 -6.751,-5.063 -8.63,-5.063 -1.504,0 -3.002,1.504 -2.818,2.818 0.565,1.871 2.627,8.63 3.941,12.189 l 14.45,39.586 c 5.247,14.259 6.561,25.134 -4.506,25.134 -7.252,0 -13.608,-3.6 -22.13,-12.824 -1.534,7.296 -10.169,12.641 -22.406,12.641 -8.814,0 -18.949,-3.376 -28.702,-9.569 C 114.959,10.318 104.45,-2.627 98.821,-18.2 96.254,-25.249 95.192,-31.7 95.433,-37.339 l -8.119,-8.815 c -3.001,-3.185 -6.759,-5.063 -8.63,-5.063 -1.505,0 -3.002,1.504 -2.818,2.818 0.565,1.871 2.627,8.63 3.94,12.189 l 13.32,36.393 c 6.378,17.635 1.879,28.144 -12.006,28.144 -8.631,0 -15.573,-3.192 -32.643,-15.198 2.062,9.378 0.191,15.381 -7.691,15.381 -7.086,0 -13.61,-3.743 -22.314,-13.26 -0.237,0.796 -0.512,1.587 -0.837,2.385 -3.185,6.751 -10.501,10.692 -20.255,10.692 -23.264,0 -45.962,-18.757 -55.906,-46.153 -9.379,-25.884 -1.879,-42.022 19.697,-42.022 18.009,0 36.018,11.075 51.217,31.33 l -2.444,1.313 c -14.259,-14.259 -24.387,-19.697 -36.393,-19.697 -10.318,0 -16.321,4.88 -18.009,15.007 -1.123,7.317 -0.183,13.885 3.75,25.892 H 17.077 C 18.97,1.68 19.664,6.681 19.31,10.834 l 4.032,4.357 c 2.811,3.001 6.378,4.689 8.065,4.689 1.498,0 3.193,-1.497 3.002,-2.81 C 33.844,15.191 31.598,8.439 30.285,4.872 l -22.89,-62.841 17.818,5.812 c 7.21,19.873 14.519,39.647 21.767,59.474 12.007,8.439 16.879,10.692 23.073,10.692 9.188,0 11.632,-5.82 7.126,-18.2 L 64.615,-34.896 c -5.254,-14.259 -6.568,-25.135 4.499,-25.135 8.516,0 15.793,4.94 26.794,18.169 2.108,-11.104 10.292,-17.986 23.366,-17.986 8.066,0 16.321,2.628 24.57,7.882 7.317,4.499 12.946,9.944 23.264,21.576 l -2.062,1.688 c -13.694,-13.136 -22.134,-17.635 -32.834,-17.635 -17.253,0 -23.63,15.008 -15.756,36.584 7.133,19.506 22.141,32.635 37.332,32.635 6.752,0 8.256,-2.062 7.691,-9.005 l -0.374,-4.124 c -0.565,-5.438 1.879,-8.63 6.003,-8.63 4.88,0 10.135,3.566 11.632,7.882 0.134,0.377 0.124,0.732 0.224,1.105 l 4.169,4.523 c 3.002,3.185 6.561,5.064 8.44,5.064 1.497,0 3.185,-1.505 3.001,-2.818 -0.565,-1.871 -2.627,-8.623 -3.94,-12.19 l -14.443,-39.585 c -5.255,-14.259 -6.569,-25.135 4.498,-25.135 7.928,0 14.754,4.224 24.536,15.474 2.436,-9.746 10.195,-15.291 22.803,-15.291 18.01,0 36.019,11.075 51.218,31.33 z"
             style="fill:#0a487c;fill-opacity:1;fill-rule:nonzero;stroke:none"
             id="path40" />
        </g>
        <g
           id="g42"
           transform="translate(933.5974,133.8178)">
          <path
             d="m 0,0 c -1.879,-1.314 -3.192,-1.879 -3.75,-1.879 -1.13,0 -2.818,0.382 -4.506,1.314 -3.376,1.504 -7.5,2.253 -12.006,2.253 -15.382,0 -29.268,-9.379 -34.331,-23.073 -3.75,-10.509 -0.374,-17.819 12.197,-27.014 l 8.63,-6.194 c 5.255,-3.75 6.752,-8.249 4.69,-14.068 -3.001,-8.249 -11.067,-13.504 -20.637,-13.504 -12.945,0 -16.886,7.127 -14.259,26.258 h -3.002 l -10.501,-29.259 h 2.437 c 2.061,1.871 2.81,2.253 5.063,2.253 2.062,0 3.941,-0.382 8.065,-1.505 4.881,-1.122 9.196,-1.878 13.137,-1.878 14.259,0 30.389,10.883 35.079,24.012 3.376,9.386 1.313,15.573 -7.691,22.325 l -15.756,12.006 c -4.132,3.001 -5.446,7.691 -3.567,12.762 2.81,7.691 10.502,12.755 19.132,12.755 10.693,0 14.068,-6.194 12.197,-23.073 h 2.811 L 2.062,0 Z"
             style="fill:#0a487c;fill-opacity:1;fill-rule:nonzero;stroke:none"
             id="path44" />
        </g>
        <g
           id="g46"
           transform="translate(392.109,107.2661)">
          <path
             d="M 0,0 C -6.759,3.132 -12.06,4.435 -20.983,4.864 L 6.418,39.908 V 39.906 L 9.785,-7.471 C 7.006,-4.314 3.696,-1.717 0,0 m -4.562,-54.299 -1.314,-3.567 h 47.834 l 1.313,3.567 c -8.256,0.557 -9.378,2.436 -10.883,16.321 L 24.323,68.573 h -3.75 L -29.354,5.066 -31.363,5.091 c -26.785,0.025 -3.764,0.058 -30.553,0.075 -9.095,-0.191 -14.566,2.724 -16.111,8.226 -0.896,3.19 0.098,5.158 3.888,7.694 3.544,2.288 4.482,3.915 3.79,6.38 -0.975,3.474 -4.518,6.151 -8.073,6.107 -5.579,-0.005 -7.849,-6.293 -5.408,-14.986 2.561,-9.122 8.873,-16.689 16.896,-20.417 8.027,-3.719 13.975,-5.023 26.424,-5.176 17.135,-0.026 -15.523,-0.041 1.618,-0.061 l -12.947,-16.468 c -21.95,-27.388 -25.326,-30.207 -34.521,-30.764 l -1.314,-3.567 h 37.149 l 1.314,3.567 c -9.005,0 -11.823,2.436 -9.944,7.691 0.748,2.253 2.253,4.873 4.124,7.317 l 16.696,21.942 h 0.052 l 5.98,7.699 1.997,2.572 c 0.787,-10e-4 1.574,-10e-4 2.361,-0.003 l 4.938,0.086 h 17.988 c 5.999,0.034 10.398,-1.15 13.151,-3.524 0,0 0.859,-0.8 1.929,-0.841 l 0.704,-9.899 1.35,-18.998 C 12.005,-50.774 8.014,-54.299 -4.562,-54.299"
             style="fill:#0a487c;fill-opacity:1;fill-rule:nonzero;stroke:none"
             id="path48" />
        </g>
        <g
           id="g50"
           transform="translate(699.5893,268.0562)">
          <path
             d="M 0,0 C 11.441,0 14.068,-5.255 10.502,-21.576 H -27.763 C -20.262,-6.759 -11.441,0 0,0 m -146.746,3.432 c 5.206,-2.412 9.564,-3.797 15.361,-4.522 l -0.016,-0.041 c -11.754,-32.39 -23.515,-64.773 -35.262,-97.171 -3.758,-11.067 -9.57,-16.696 -16.696,-16.696 -4.131,0 -6.003,1.871 -7.316,7.317 -1.131,5.063 -2.627,6.751 -5.82,6.751 -4.498,0 -9.188,-3.376 -10.692,-7.691 -2.437,-6.751 3.94,-11.632 15.198,-11.632 11.815,0 23.447,5.064 31.329,13.503 7.875,8.448 12.006,15.199 17.635,30.207 9.059,24.921 18.105,49.864 27.164,74.794 15.57,-0.023 31.146,-0.037 46.721,-0.056 -11.673,-32.166 -23.353,-64.324 -35.018,-96.497 -3.757,-11.067 -9.569,-16.696 -16.695,-16.696 -4.132,0 -6.003,1.871 -7.317,7.317 -1.13,5.063 -2.627,6.751 -5.82,6.751 -4.498,0 -9.187,-3.376 -10.692,-7.691 -2.437,-6.751 3.941,-11.632 15.198,-11.632 11.816,0 23.447,5.064 31.329,13.503 7.875,8.448 12.007,15.199 17.635,30.207 9.061,24.924 18.108,49.872 27.167,74.804 l 0.334,0.005 17.988,10e-4 c 5.267,0.029 9.225,-0.936 11.994,-2.765 -10.721,-8.162 -19.68,-20.282 -24.988,-34.904 -9.379,-25.884 -1.878,-42.022 19.697,-42.022 18.01,0 36.019,11.075 51.218,31.329 l -2.444,1.314 C 6.194,-63.04 -3.941,-68.478 -15.947,-68.478 c -10.318,0 -16.321,4.881 -18.009,15.008 -1.123,7.317 -0.184,13.885 3.749,25.891 h 57.786 c 2.027,8.23 2.655,13.366 2.117,17.694 l 3.944,4.256 c 2.627,2.62 6.004,4.315 7.691,4.315 1.314,0 2.07,-1.313 2.253,-2.444 l 7.134,-65.285 c 0.183,-3.185 0.183,-5.438 -0.375,-6.935 -0.939,-2.818 -9.569,-14.634 -14.824,-20.262 -4.315,-4.881 -9.944,-8.44 -12.571,-8.44 -1.123,0 -2.62,0.374 -4.125,1.314 -3.001,1.313 -6.003,2.062 -9.195,2.062 -4.315,0 -9.379,-3.758 -11.067,-8.256 -2.245,-6.194 2.062,-10.884 9.944,-10.884 12.572,0 25.326,10.509 45.214,37.524 l 56.839,76.535 c 4.689,6.003 7.317,7.882 12.006,8.447 l 1.123,2.81 H 98.368 l -1.13,-2.81 c 8.562,0 9.081,-3.635 5.438,-7.882 L 65.726,-57.594 61.41,-10.135 60.097,0.932 c -1.314,4.315 -4.507,6.003 -9.379,6.003 -6.854,0 -13.503,-3.527 -21.95,-12.642 -0.193,0.588 -0.39,1.174 -0.631,1.766 C 24.952,2.811 17.635,6.751 7.882,6.751 c -9.72,0 -19.328,-3.311 -27.962,-9.122 -2.807,3.233 -6.171,5.886 -9.932,7.633 -6.294,2.917 -11.329,4.245 -19.193,4.762 l 6.01,16.608 c 3.941,11.074 9.57,16.696 16.703,16.696 4.125,0 6.003,-1.872 7.31,-7.31 1.13,-5.071 2.818,-6.759 6.003,-6.759 4.505,0 9.195,3.376 10.7,7.691 2.436,6.759 -3.941,11.632 -15.199,11.632 -11.815,0 -23.638,-5.063 -31.52,-13.503 -6.842,-7.34 -10.716,-13.414 -15.307,-24.723 -15.689,0.015 -31.38,0.028 -47.069,0.044 l 5.874,16.232 c 3.94,11.074 9.569,16.696 16.703,16.696 4.124,0 6.003,-1.872 7.309,-7.31 1.13,-5.071 2.818,-6.759 6.003,-6.759 4.506,0 9.196,3.376 10.7,7.691 2.437,6.759 -3.941,11.632 -15.198,11.632 -11.816,0 -23.638,-5.063 -31.52,-13.503 -6.83,-7.327 -10.703,-13.395 -15.283,-24.665 -4.914,0.004 -9.827,0.01 -14.742,0.013 -9.095,-0.19 -14.567,2.725 -16.111,8.227 -0.896,3.19 0.098,5.158 3.888,7.694 3.544,2.287 4.482,3.915 3.79,6.38 -0.976,3.474 -4.518,6.151 -8.073,6.107 -5.58,-0.005 -7.849,-6.293 -5.408,-14.986 2.561,-9.123 8.873,-16.689 16.896,-20.417"
             style="fill:#0a487c;fill-opacity:1;fill-rule:nonzero;stroke:none"
             id="path52" />
        </g>
        <g
           id="g54"
           transform="translate(221.1156,196.117)">
          <path
             d="m 0,0 -2.898,40.785 c 0,0 -12.308,-15.205 -34.621,-38.001 0.859,-10e-4 1.768,-0.002 2.788,-0.003 l 1.729,-0.022 7.206,-0.174 c 7.682,-0.369 12.245,-1.491 18.063,-4.187 3.128,-1.453 5.928,-3.643 8.295,-6.299 l -0.187,2.627 z"
             style="fill:#c7c8ca;fill-opacity:1;fill-rule:nonzero;stroke:none"
             id="path56" />
        </g>
        <g
           id="g58"
           transform="translate(218.2162,236.9013)">
          <path
             d="M 0,0 H 0.001 V 0.001 Z"
             style="fill:#4fa705;fill-opacity:1;fill-rule:nonzero;stroke:none"
             id="path60" />
        </g>
        <g
           id="g62"
           transform="translate(248.8118,152.7348)">
          <path
             d="m 0,0 h -41.177 l 1.131,3.071 c 10.825,0 14.262,3.034 14.356,12.087 l -1.162,16.355 -0.154,2.161 v -1.626 c -0.802,0.131 -1.423,0.677 -1.423,0.677 -2.37,2.044 -6.157,3.063 -11.32,3.034 l -15.485,-10e-4 -4.252,-0.073 c -0.677,10e-4 -1.354,10e-4 -2.031,0.002 l -7.392,0.009 c -14.755,0.018 13.358,0.031 -1.392,0.053 -1.88,0.023 -3.539,0.09 -5.114,0.18 C -80.992,30.424 -86.996,24.63 -93.505,18.563 -107.683,6.735 -125.362,0 -142.647,0 c -32.138,0 -45.708,21.966 -33.755,54.748 6.621,18.409 18.896,33.748 34.885,43.925 12.755,8.073 27.292,12.755 39.725,12.755 7.916,0 15.338,-1.289 22.288,-3.872 2.262,-0.974 4.359,-1.454 5.97,-1.454 3.07,0 6.298,1.933 8.56,5.326 h 3.393 L -73.37,74.932 h -3.715 c 0.809,10.5 -0.157,15.016 -3.392,20.184 -4.037,6.463 -11.144,9.856 -20.507,9.856 -23.419,0 -45.22,-18.896 -55.878,-48.127 -11.072,-30.579 -4.261,-49.738 21.966,-49.738 13.096,0 25.299,4.674 40.919,15.589 0,0 5.479,4.982 14.009,13.632 -4.922,0.628 -8.641,1.82 -13.081,3.877 -6.906,3.209 -12.339,9.723 -14.544,17.576 -2.101,7.483 -0.148,12.896 4.655,12.9 3.061,0.038 6.11,-2.267 6.95,-5.257 0.596,-2.122 -0.212,-3.523 -3.263,-5.492 -3.262,-2.183 -4.118,-3.878 -3.347,-6.623 1.33,-4.737 6.04,-7.246 13.869,-7.082 19.403,-0.012 8.458,-0.034 18.229,-0.053 9.401,10.002 20.659,22.673 32.027,37.149 l 20.064,25.521 h 3.228 L -8.238,17.121 C -6.943,5.168 -5.977,3.551 1.131,3.071 Z M 54.849,37.233 C 53.806,34.685 52.097,32.153 50.8,29.446 48.967,26.915 47.245,24.24 45.179,21.683 43.006,19.187 40.991,16.527 38.47,14.217 36.175,11.729 33.704,9.388 31.137,7.196 28.679,4.902 26.047,2.848 23.572,0.776 20.94,-1.31 18.37,-3.27 15.894,-5.107 c 2.433,3.262 4.799,6.516 7.067,9.754 l 4.652,6.782 C 76.4,84.064 86.69,148.008 86.69,148.008 -20.503,158.336 -53.761,200.05 -58.977,203.699 l 0.09,0.509 c 0,0 -0.157,-0.096 -0.441,-0.261 -0.227,0.165 -0.35,0.261 -0.35,0.261 l -0.09,-0.509 c -6.503,-3.649 -54.471,-45.363 -165.307,-55.691 0,0 -3.025,-15.981 -3.215,-40.924 1.155,1.695 2.381,3.365 3.763,4.961 8.159,9.941 19.508,17.03 31.102,22.361 11.709,5.315 24.054,8.87 36.502,11.589 12.506,2.802 24.973,4.275 37.667,5.609 12.394,0.689 24.757,2.171 36.998,1.961 6.086,-0.044 12.212,0.372 18.087,-0.057 5.89,-0.327 18.13,-0.65 23.854,-0.968 5.621,-0.71 11.148,-1.409 16.559,-2.093 5.423,-0.628 10.466,-2.078 15.508,-3.035 9.94,-2.319 19.034,-5.306 26.967,-8.846 7.988,-3.448 14.693,-7.608 20.289,-11.673 2.715,-2.131 5.12,-4.292 7.331,-6.278 1.976,-2.227 4.007,-4.074 5.446,-6.089 3.041,-3.886 5.032,-7.256 6.108,-9.708 1.15,-2.412 1.497,-3.834 1.497,-3.834 0,0 -0.397,1.402 -1.632,3.754 -1.159,2.394 -3.267,5.665 -6.432,9.4 -1.501,1.938 -3.596,3.699 -5.631,5.823 -2.274,1.886 -4.737,3.933 -7.505,5.937 -5.706,3.816 -12.494,7.679 -20.536,10.802 -7.984,3.215 -17.098,5.848 -27.028,7.8 -5.043,0.773 -10.057,2.034 -15.468,2.472 -5.384,0.496 -10.885,1.003 -16.479,1.519 -5.688,0.126 -17.892,0.255 -23.746,0.385 -5.831,0.234 -11.864,-0.377 -17.863,-0.525 -11.928,-0.161 -24.527,-2.054 -36.902,-3.14 -12.161,-1.673 -24.644,-3.538 -36.613,-6.618 -11.99,-2.995 -23.709,-6.785 -34.328,-11.981 -10.535,-5.196 -20.177,-11.774 -26.391,-19.886 -1.081,-1.315 -2.025,-2.677 -2.907,-4.054 -0.015,-0.013 -0.085,-0.074 -0.085,-0.074 -1.037,0.005 -36.189,-50.536 -7.233,-76.875 0,0 -5.368,21.251 0.954,44.766 1.603,-15.038 4.414,-31.412 9.136,-48.494 0.003,-0.068 0.006,-0.135 0.006,-0.135 l 0.16,-0.513 c 0.07,-0.252 0.121,-0.495 0.192,-0.746 0.028,-0.056 0.062,-0.105 0.091,-0.16 l 4.727,-15.174 c 15.081,-43.717 43.294,-89.983 94.975,-126.996 l -0.09,-0.513 c 0.149,0.084 0.292,0.172 0.441,0.256 0.118,-0.084 0.231,-0.172 0.35,-0.256 l 0.09,0.513 c 47.187,26.98 83.596,58.878 111.701,91.12 -1.933,-0.836 -3.82,-1.676 -5.791,-2.534 -3.916,-1.866 -8.041,-3.004 -12.173,-4.437 -4.145,-1.323 -8.334,-2.94 -12.602,-3.929 -4.274,-0.936 -8.581,-1.878 -12.906,-2.824 l -6.503,-1.414 -6.494,-0.824 c -8.646,-0.844 -17.356,-2.167 -25.696,-1.89 -8.377,-0.032 -16.687,-0.282 -24.371,0.824 -7.742,0.855 -15.283,1.51 -22.178,2.82 -6.847,1.463 -13.251,3.004 -19.133,4.442 -2.924,0.761 -5.806,1.278 -8.39,2.152 -2.559,0.924 -4.986,1.801 -7.267,2.624 -4.521,1.692 -8.463,3.168 -11.709,4.383 -6.436,2.504 -10.032,4.043 -10.032,4.043 0,0 4.097,-0.504 11.124,-1.576 3.487,-0.573 7.72,-1.269 12.575,-2.067 4.801,-0.905 10.236,-1.829 16.332,-2.317 6.05,-0.613 12.573,-1.294 19.398,-2.182 6.895,-0.645 14.356,-0.511 21.881,-1.038 7.5,-0.765 15.539,0.252 23.522,0.276 7.99,-0.148 16.221,1.31 24.401,2.207 l 6.137,0.659 6.114,1.235 c 4.073,0.816 8.13,1.63 12.155,2.437 4.016,0.908 7.945,2.252 11.876,3.265 3.908,1.146 7.839,2.002 11.546,3.576 3.748,1.4 7.421,2.837 11.067,4.107 2.425,0.892 4.739,1.966 7.032,3.033 0.816,0.362 1.646,0.736 2.53,1.157 0.289,0.129 0.581,0.272 0.87,0.397 0.248,0.108 0.463,0.24 0.71,0.349 0.015,0.019 0.029,0.038 0.044,0.057 0.485,0.241 0.945,0.455 1.445,0.715 4.724,2.379 10.102,5.544 15.638,9.387 2.69,2.04 5.639,3.925 8.289,6.35 2.761,2.27 5.453,4.722 7.999,7.368 2.651,2.521 4.843,5.501 7.148,8.273 2.265,2.816 3.91,6.004 5.752,8.864 1.359,3.11 2.862,6.058 3.709,8.965 0.671,2.939 1.542,5.691 1.713,8.211 0.103,2.526 0.082,4.804 0.055,6.786 -0.004,0.055 -0.02,0.096 -0.025,0.151 l -4.053,-8.085 c -0.613,-1.96 -1.551,-4.008 -2.232,-6.154"
             style="fill:#c7c8ca;fill-opacity:1;fill-rule:nonzero;stroke:none"
             id="path64" />
        </g>
        <g
           id="g66"
           transform="translate(87.3944,250.6043)">
          <path
             d="m 0,0 c 0,0 -1.64,-1.473 -4.257,-4.236 -1.313,-1.374 -2.857,-3.086 -4.568,-5.077 -1.704,-1.998 -3.554,-4.306 -5.447,-6.888 -0.983,-1.264 -1.903,-2.653 -2.838,-4.096 -0.978,-1.413 -1.922,-2.908 -2.833,-4.481 -0.976,-1.532 -1.841,-3.179 -2.68,-4.881 -0.895,-1.673 -1.728,-3.41 -2.482,-5.219 -0.849,-1.768 -1.534,-3.63 -2.149,-5.54 -0.711,-1.878 -1.258,-3.823 -1.747,-5.8 l -0.794,-2.958 -0.498,-3.036 c -0.368,-2.024 -0.687,-4.059 -0.72,-6.126 l -0.243,-3.081 -0.063,-0.77 -0.015,-0.193 -0.004,-0.048 c -0.002,-0.068 -0.009,0.424 -0.005,0.192 l 0.004,-0.102 0.016,-0.408 0.063,-1.628 0.126,-3.245 0.069,-1.61 0.267,-1.398 c 0.597,-3.671 1.447,-7.546 3.074,-10.918 0.398,-0.849 0.792,-1.691 1.183,-2.525 0.435,-0.811 0.984,-1.545 1.441,-2.328 0.883,-1.597 2.009,-2.981 3.143,-4.314 2.238,-2.687 4.789,-4.894 7.241,-6.845 1.258,-0.932 2.54,-1.731 3.721,-2.57 1.251,-0.735 2.438,-1.434 3.554,-2.089 2.306,-1.196 4.367,-2.198 6.115,-2.927 3.494,-1.471 5.622,-2.07 5.622,-2.07 0,0 -2.211,-0.023 -6.037,0.665 -1.907,0.358 -4.216,0.888 -6.812,1.742 -1.291,0.441 -2.642,0.985 -4.092,1.527 -1.392,0.659 -2.864,1.363 -4.368,2.171 -2.944,1.715 -6.112,3.775 -8.936,6.617 -1.444,1.39 -2.893,2.863 -4.116,4.605 -0.636,0.848 -1.34,1.674 -1.899,2.601 -0.523,0.953 -1.05,1.914 -1.582,2.884 -2.083,3.901 -3.585,8.242 -4.323,13.029 l -0.329,1.77 -0.101,1.619 -0.191,3.243 -0.095,1.626 -0.024,0.407 -0.008,0.448 0.012,0.215 0.049,0.858 0.206,3.438 c 0.096,2.3 0.487,4.562 0.938,6.806 l 0.629,3.361 0.936,3.263 0.943,3.23 1.251,3.08 c 0.802,2.053 1.674,4.038 2.705,5.905 0.952,1.906 1.912,3.761 3.078,5.444 1.079,1.733 2.175,3.394 3.369,4.92 2.239,3.151 4.679,5.875 7.02,8.265 2.295,2.435 4.608,4.452 6.695,6.167 2.065,1.743 3.998,3.095 5.59,4.188 C -1.986,-0.961 0,0 0,0"
             style="fill:#0a487c;fill-opacity:1;fill-rule:nonzero;stroke:none"
             id="path68" />
        </g>
        <g
           id="g70">
          <g
             id="g72" />
          <g
             id="g88">
            <g
               clip-path="url(#clipPath76)"
               opacity="0.25"
               id="g86">
              <g
                 transform="translate(277.8964,157.9888)"
                 id="g80">
                <path
                   d="m 0,0 c 25.73,37.948 48.217,85.691 60.498,144.961 0,0 -81.1,6.937 -148.56,53.484 0,0 -47.638,-76.493 -56.486,-239.086 C -58.802,-40.91 -14.914,-12.338 0,0"
                   style="fill:#0a487c;fill-opacity:1;fill-rule:nonzero;stroke:none"
                   id="path78" />
              </g>
              <g
                 transform="translate(161.6512,109.7895)"
                 id="g84">
                <path
                   d="m 0,0 c -0.921,0 -26.005,2.83 -26.005,2.83 l -2.521,0.647 c -1.267,-25.367 -1.617,-52.732 -0.672,-82.261 0,0 66.48,27.478 125.652,100.332 L 53.621,7.825 C 53.621,7.825 0.921,0 0,0"
                   style="fill:#0a487c;fill-opacity:1;fill-rule:nonzero;stroke:none"
                   id="path82" />
              </g>
            </g>
          </g>
        </g>
      </g>
    </g>
  </g>
</svg>
